<?xml version="1.0" encoding="UTF-8" standalone="no"?>
<!-- Created with Inkscape (http://www.inkscape.org/) -->

<svg
   width="120"
   height="120"
   viewBox="0 0 120 120"
   version="1.1"
   id="svg1"
   inkscape:version="1.3 (0e150ed6c4, 2023-07-21)"
   sodipodi:docname="Lactate.svg"
   inkscape:export-filename="Pyruvate.svg"
   inkscape:export-xdpi="96"
   inkscape:export-ydpi="96"
   xmlns:inkscape="http://www.inkscape.org/namespaces/inkscape"
   xmlns:sodipodi="http://sodipodi.sourceforge.net/DTD/sodipodi-0.dtd"
   xmlns="http://www.w3.org/2000/svg"
   xmlns:svg="http://www.w3.org/2000/svg">
  <sodipodi:namedview
     id="namedview1"
     pagecolor="#ffffff"
     bordercolor="#000000"
     borderopacity="0.25"
     inkscape:showpageshadow="2"
     inkscape:pageopacity="0.0"
     inkscape:pagecheckerboard="0"
     inkscape:deskcolor="#d1d1d1"
     inkscape:document-units="px"
     inkscape:zoom="5.6568544"
     inkscape:cx="50.911687"
     inkscape:cy="61.783453"
     inkscape:window-width="1920"
     inkscape:window-height="991"
     inkscape:window-x="-9"
     inkscape:window-y="-9"
     inkscape:window-maximized="1"
     inkscape:current-layer="layer1" />
  <defs
     id="defs1">
    <inkscape:path-effect
       effect="bspline"
       id="path-effect3"
       is_visible="true"
       lpeversion="1.3"
       weight="33.333333"
       steps="2"
       helper_size="0"
       apply_no_weight="true"
       apply_with_weight="true"
       only_selected="false"
       uniform="false" />
  </defs>
  <g
     inkscape:label="Warstwa 1"
     inkscape:groupmode="layer"
     id="layer1">
    <path
       id="path1"
       style="fill:#efe9e9;fill-opacity:1;stroke:#000000;stroke-width:2.77303;stroke-opacity:0"
       d="M 59.236022,1.3952841 C 49.332892,1.5319515 40.093467,4.0694871 33.199477,7.6082249 22.467495,12.998442 15.787932,20.133168 11.029905,27.343636 2.852681,39.977203 0.35459509,53.455864 1.7369283,66.704543 3.194416,79.042743 7.984971,91.501221 19.153027,102.55469 c 5.834307,5.50459 13.536168,10.83006 24.502114,13.85703 8.102654,2.33416 18.133812,2.88928 26.928851,1.28641 10.963577,-1.90073 19.431242,-6.36959 25.66328,-11.22416 C 108.12506,97.078305 113.75285,86.003347 116.7373,75.022884 120.6415,58.895411 118.73031,42.209971 108.59331,26.739376 103.00532,18.577554 94.903383,10.358117 81.040521,5.08504 74.748675,2.7510253 67.077771,1.2545678 59.236022,1.3952841 Z" />
    <circle
       style="fill:#fc7ecb;stroke:#000000;stroke-opacity:0;fill-opacity:1"
       id="path2"
       cx="51.196701"
       cy="101.05635"
       r="10.5" />
    <path
       style="fill:#fc7ecb;stroke:#000000;stroke-width:1.35945;stroke-opacity:0;fill-opacity:1"
       d="m 52.997434,103.44008 1e-6,-39.073512 14.721106,-8.499235 34.223309,19.758838 4.81589,-2.780463 -36.848267,-21.274363 -7e-6,-37.844176 -4.732447,2.73228 10e-7,34.230921 -15.052029,8.690293 -30.335422,-17.514164 -4.110878,2.373417 c 0.670481,0.670482 33.408138,19.288198 33.408138,19.288198 v 40.496166 z"
       id="path3" />
  </g>
</svg>
